<?xml version="1.0" encoding="UTF-8" standalone="no"?>
<!-- Created with Inkscape (http://www.inkscape.org/) -->

<svg
   xmlns:dc="http://purl.org/dc/elements/1.1/"
   xmlns:cc="http://creativecommons.org/ns#"
   xmlns:rdf="http://www.w3.org/1999/02/22-rdf-syntax-ns#"
   xmlns:svg="http://www.w3.org/2000/svg"
   xmlns="http://www.w3.org/2000/svg"
   xmlns:sodipodi="http://sodipodi.sourceforge.net/DTD/sodipodi-0.dtd"
   xmlns:inkscape="http://www.inkscape.org/namespaces/inkscape"
   width="192"
   height="61.560001"
   id="svg2"
   version="1.1"
   inkscape:version="0.47 r22583"
   sodipodi:docname="fan.svg"
   inkscape:export-filename="/home/aiden/Dropbox/Projects/Sprung/res/images/fan.png"
   inkscape:export-xdpi="90"
   inkscape:export-ydpi="90">
  <defs
     id="defs4">
    <inkscape:perspective
       sodipodi:type="inkscape:persp3d"
       inkscape:vp_x="0 : 526.18109 : 1"
       inkscape:vp_y="0 : 1000 : 0"
       inkscape:vp_z="744.09448 : 526.18109 : 1"
       inkscape:persp3d-origin="372.04724 : 350.78739 : 1"
       id="perspective10" />
  </defs>
  <sodipodi:namedview
     id="base"
     pagecolor="#ffffff"
     bordercolor="#666666"
     borderopacity="1.0"
     inkscape:pageopacity="0.0"
     inkscape:pageshadow="2"
     inkscape:zoom="5.6568542"
     inkscape:cx="70.893261"
     inkscape:cy="44.323953"
     inkscape:document-units="px"
     inkscape:current-layer="layer1"
     showgrid="false"
     inkscape:window-width="1920"
     inkscape:window-height="1029"
     inkscape:window-x="0"
     inkscape:window-y="24"
     inkscape:window-maximized="1"
     showguides="true"
     inkscape:guide-bbox="true">
    <sodipodi:guide
       orientation="1,0"
       position="16,87.504464"
       id="guide3734" />
    <sodipodi:guide
       orientation="1,0"
       position="48,73.539"
       id="guide3736" />
    <sodipodi:guide
       orientation="1,0"
       position="80,71.948"
       id="guide3738" />
    <sodipodi:guide
       orientation="1,0"
       position="112,63.993164"
       id="guide3740" />
    <sodipodi:guide
       orientation="1,0"
       position="144,48.790368"
       id="guide3742" />
    <sodipodi:guide
       orientation="1,0"
       position="176,49.321"
       id="guide3744" />
  </sodipodi:namedview>
  <metadata
     id="metadata7">
    <rdf:RDF>
      <cc:Work
         rdf:about="">
        <dc:format>image/svg+xml</dc:format>
        <dc:type
           rdf:resource="http://purl.org/dc/dcmitype/StillImage" />
        <dc:title></dc:title>
      </cc:Work>
    </rdf:RDF>
  </metadata>
  <g
     inkscape:label="Layer 1"
     inkscape:groupmode="layer"
     id="layer1"
     transform="translate(-187.03719,-238.51129)">
    <rect
       style="fill:#cccccc;fill-opacity:1;stroke:none"
       id="rect2826"
       width="4.2377596"
       height="27.540707"
       x="201.06079"
       y="272.53058" />
    <path
       style="fill:#cccccc;stroke:none"
       d="m 193.85849,268.18289 c 1.64112,-9.25679 15.92946,-6.94317 16.31207,-0.17477 0.35188,6.22497 -13.46838,10.00787 -16.31207,0.17477 z"
       id="path2824"
       sodipodi:nodetypes="csc" />
    <path
       sodipodi:nodetypes="ccc"
       id="path2848"
       d="m 193.85849,268.18289 c 3.48489,4.54658 17.1407,2.12476 16.31207,-0.17477 0.35188,6.22497 -13.46838,10.00787 -16.31207,0.17477 z"
       style="fill:#b3b3b3;stroke:none" />
    <path
       style="fill:#e6e6e6;stroke:none"
       d="m 194.79584,238.83359 c 3.59576,11.33436 2.53981,20.61963 0,29.33025 -1.64643,-9.44746 -2.69267,-19.01496 0,-29.33025 z"
       id="path2816"
       sodipodi:nodetypes="ccc" />
    <path
       sodipodi:nodetypes="ccc"
       id="path2818"
       d="m 194.81082,268.1953 c -3.59576,11.33436 -2.53981,20.61963 0,29.33025 1.64644,-9.44746 2.69268,-19.01496 0,-29.33025 z"
       style="fill:#e6e6e6;stroke:none" />
    <path
       style="fill:#f9f9f9;stroke:none"
       d="m 195.01027,264.86653 c -4.21499,3.04443 -1.88319,4.59129 0,6.24077 0.33923,-1.74689 1.4638,-2.72194 0,-6.24077 z"
       id="path2820"
       sodipodi:nodetypes="ccc" />
    <path
       style="fill:#e6e6e6;stroke:none"
       d="m 226.81086,268.19275 c -3.61658,9.49605 -2.55452,17.27536 0,24.57321 1.65598,-7.91519 2.70828,-15.93095 0,-24.57321 z"
       id="path3754"
       sodipodi:nodetypes="ccc" />
    <path
       sodipodi:nodetypes="ccc"
       id="path3778"
       d="m 258.8109,268.19048 c -3.63697,7.86247 -2.56892,14.30352 0,20.34594 1.66532,-6.55356 2.72356,-13.19038 0,-20.34594 z"
       style="fill:#e6e6e6;stroke:none" />
    <path
       style="fill:#e6e6e6;stroke:none"
       d="m 290.81097,268.18727 c -3.67016,5.54929 -2.59236,10.09536 0,14.36007 1.68052,-4.62548 2.74841,-9.30971 0,-14.36007 z"
       id="path3807"
       sodipodi:nodetypes="ccc" />
    <path
       sodipodi:nodetypes="ccc"
       id="path3827"
       d="m 322.81105,268.18435 c -3.70757,3.44199 -2.61879,6.26172 0,8.90694 1.69764,-2.86898 2.77643,-5.77442 0,-8.90694 z"
       style="fill:#e6e6e6;stroke:none" />
    <path
       style="fill:#e6e6e6;stroke:none"
       d="m 354.81113,268.18199 c -3.74793,1.74509 -2.6473,3.17469 0,4.51582 1.71613,-1.45458 2.80666,-2.92763 0,-4.51582 z"
       id="path3837"
       sodipodi:nodetypes="ccc" />
    <path
       sodipodi:nodetypes="cccc"
       id="path2850"
       d="m 192.72345,268.51002 c 0.29148,0.97345 1.34522,1.77254 2.28682,2.59728 0.16961,-0.87344 0.53556,-1.55393 0.67614,-2.45591 -0.18876,1.87514 -3.34395,-0.30246 -2.96296,-0.14137 z"
       style="fill:#f2f2f2;stroke:none" />
    <rect
       y="272.53058"
       x="233.06079"
       height="27.540707"
       width="4.2377596"
       id="rect2852"
       style="fill:#cccccc;fill-opacity:1;stroke:none" />
    <path
       sodipodi:nodetypes="csc"
       id="path2854"
       d="m 225.85849,268.18289 c 1.64112,-9.25679 15.92946,-6.94317 16.31207,-0.17477 0.35188,6.22497 -13.46838,10.00787 -16.31207,0.17477 z"
       style="fill:#cccccc;stroke:none" />
    <path
       sodipodi:nodetypes="ccc"
       id="path3752"
       d="m 226.7958,243.59318 c 3.61658,9.49605 2.55452,17.27536 0,24.57321 -1.65597,-7.91519 -2.70827,-15.93095 0,-24.57321 z"
       style="fill:#e6e6e6;stroke:none" />
    <path
       style="fill:#b3b3b3;stroke:none"
       d="m 225.85849,268.18289 c 3.48489,4.54658 17.1407,2.12476 16.31207,-0.17477 0.35188,6.22497 -13.46838,10.00787 -16.31207,0.17477 z"
       id="path2856"
       sodipodi:nodetypes="ccc" />
    <path
       sodipodi:nodetypes="ccc"
       id="path2858"
       d="m 227.01027,264.86653 c -4.21499,3.04443 -1.88319,4.59129 0,6.24077 0.33923,-1.74689 1.4638,-2.72194 0,-6.24077 z"
       style="fill:#f9f9f9;stroke:none" />
    <path
       style="fill:#f2f2f2;stroke:none"
       d="m 224.72345,268.51002 c 0.29148,0.97345 1.34522,1.77254 2.28682,2.59728 0.16961,-0.87344 0.53556,-1.55393 0.67614,-2.45591 -0.18876,1.87514 -3.34395,-0.30246 -2.96296,-0.14137 z"
       id="path2860"
       sodipodi:nodetypes="cccc" />
    <rect
       style="fill:#cccccc;fill-opacity:1;stroke:none"
       id="rect2862"
       width="4.2377596"
       height="27.540707"
       x="264.97241"
       y="272.53058" />
    <path
       style="fill:#cccccc;stroke:none"
       d="m 257.7701,268.18289 c 1.64112,-9.25679 15.92946,-6.94317 16.31207,-0.17477 0.35188,6.22497 -13.46838,10.00787 -16.31207,0.17477 z"
       id="path2864"
       sodipodi:nodetypes="csc" />
    <path
       style="fill:#e6e6e6;stroke:none"
       d="m 258.79576,247.82272 c 3.63697,7.86246 2.56892,14.30352 0,20.34594 -1.66531,-6.55356 -2.72355,-13.19039 0,-20.34594 z"
       id="path3776"
       sodipodi:nodetypes="ccc" />
    <path
       sodipodi:nodetypes="ccc"
       id="path2866"
       d="m 257.7701,268.18289 c 3.48489,4.54658 17.1407,2.12476 16.31207,-0.17477 0.35188,6.22497 -13.46838,10.00787 -16.31207,0.17477 z"
       style="fill:#b3b3b3;stroke:none" />
    <path
       style="fill:#f9f9f9;stroke:none"
       d="m 258.92188,264.86653 c -4.21499,3.04443 -1.88319,4.59129 0,6.24077 0.33923,-1.74689 1.4638,-2.72194 0,-6.24077 z"
       id="path2868"
       sodipodi:nodetypes="ccc" />
    <path
       sodipodi:nodetypes="cccc"
       id="path2870"
       d="m 256.63506,268.51002 c 0.29148,0.97345 1.34522,1.77254 2.28682,2.59728 0.16961,-0.87344 0.53556,-1.55393 0.67614,-2.45591 -0.18876,1.87514 -3.34395,-0.30246 -2.96296,-0.14137 z"
       style="fill:#f2f2f2;stroke:none" />
    <rect
       y="272.53058"
       x="296.88403"
       height="27.540707"
       width="4.2377596"
       id="rect2872"
       style="fill:#cccccc;fill-opacity:1;stroke:none" />
    <path
       sodipodi:nodetypes="csc"
       id="path2874"
       d="m 289.68171,268.18289 c 1.64112,-9.25679 15.92946,-6.94317 16.31207,-0.17477 0.35188,6.22497 -13.46838,10.00787 -16.31207,0.17477 z"
       style="fill:#cccccc;stroke:none" />
    <path
       sodipodi:nodetypes="ccc"
       id="path3805"
       d="m 290.79569,253.8118 c 3.67016,5.54929 2.59236,10.09536 0,14.36007 -1.68051,-4.62547 -2.7484,-9.30971 0,-14.36007 z"
       style="fill:#e6e6e6;stroke:none" />
    <path
       style="fill:#b3b3b3;stroke:none"
       d="m 289.68171,268.18289 c 3.48489,4.54658 17.1407,2.12476 16.31207,-0.17477 0.35188,6.22497 -13.46838,10.00787 -16.31207,0.17477 z"
       id="path2876"
       sodipodi:nodetypes="ccc" />
    <path
       sodipodi:nodetypes="ccc"
       id="path2878"
       d="m 290.83349,264.86653 c -4.21499,3.04443 -1.88319,4.59129 0,6.24077 0.33923,-1.74689 1.4638,-2.72194 0,-6.24077 z"
       style="fill:#f9f9f9;stroke:none" />
    <path
       style="fill:#f2f2f2;stroke:none"
       d="m 288.54667,268.51002 c 0.29148,0.97345 1.34522,1.77254 2.28682,2.59728 0.16961,-0.87344 0.53556,-1.55393 0.67614,-2.45591 -0.18876,1.87514 -3.34395,-0.30246 -2.96296,-0.14137 z"
       id="path2880"
       sodipodi:nodetypes="cccc" />
    <rect
       style="fill:#cccccc;fill-opacity:1;stroke:none"
       id="rect2882"
       width="4.2377596"
       height="27.540707"
       x="328.88403"
       y="272.53058" />
    <path
       style="fill:#cccccc;stroke:none"
       d="m 321.68171,268.18289 c 1.64112,-9.25679 15.92946,-6.94317 16.31207,-0.17477 0.35188,6.22497 -13.46838,10.00787 -16.31207,0.17477 z"
       id="path2884"
       sodipodi:nodetypes="csc" />
    <path
       style="fill:#e6e6e6;stroke:none"
       d="m 322.79561,259.26785 c 3.70757,3.44199 2.61879,6.26172 0,8.90694 -1.69763,-2.86898 -2.77642,-5.77442 0,-8.90694 z"
       id="path3825"
       sodipodi:nodetypes="ccc" />
    <path
       sodipodi:nodetypes="ccc"
       id="path2886"
       d="m 321.68171,268.18289 c 3.48489,4.54658 17.1407,2.12476 16.31207,-0.17477 0.35188,6.22497 -13.46838,10.00787 -16.31207,0.17477 z"
       style="fill:#b3b3b3;stroke:none" />
    <path
       style="fill:#f9f9f9;stroke:none"
       d="m 322.83349,264.86653 c -4.21499,3.04443 -1.88319,4.59129 0,6.24077 0.33923,-1.74689 1.4638,-2.72194 0,-6.24077 z"
       id="path2888"
       sodipodi:nodetypes="ccc" />
    <path
       sodipodi:nodetypes="cccc"
       id="path2890"
       d="m 320.54667,268.51002 c 0.29148,0.97345 1.34522,1.77254 2.28682,2.59728 0.16961,-0.87344 0.53556,-1.55393 0.67614,-2.45591 -0.18876,1.87514 -3.34395,-0.30246 -2.96296,-0.14137 z"
       style="fill:#f2f2f2;stroke:none" />
    <rect
       y="272.53058"
       x="360.88403"
       height="27.540707"
       width="4.2377596"
       id="rect2892"
       style="fill:#cccccc;fill-opacity:1;stroke:none" />
    <path
       sodipodi:nodetypes="csc"
       id="path2894"
       d="m 353.68171,268.18289 c 1.64112,-9.25679 15.92946,-6.94317 16.31207,-0.17477 0.35188,6.22497 -13.46838,10.00787 -16.31207,0.17477 z"
       style="fill:#cccccc;stroke:none" />
    <path
       sodipodi:nodetypes="ccc"
       id="path3835"
       d="m 354.79553,263.66133 c 3.74793,1.74509 2.6473,3.17469 0,4.51582 -1.71612,-1.45458 -2.80665,-2.92763 0,-4.51582 z"
       style="fill:#e6e6e6;stroke:none" />
    <path
       style="fill:#b3b3b3;stroke:none"
       d="m 353.68171,268.18289 c 3.48489,4.54658 17.1407,2.12476 16.31207,-0.17477 0.35188,6.22497 -13.46838,10.00787 -16.31207,0.17477 z"
       id="path2896"
       sodipodi:nodetypes="ccc" />
    <path
       sodipodi:nodetypes="ccc"
       id="path2898"
       d="m 354.83349,264.86653 c -4.21499,3.04443 -1.88319,4.59129 0,6.24077 0.33923,-1.74689 1.4638,-2.72194 0,-6.24077 z"
       style="fill:#f9f9f9;stroke:none" />
    <path
       style="fill:#f2f2f2;stroke:none"
       d="m 352.54667,268.51002 c 0.29148,0.97345 1.34522,1.77254 2.28682,2.59728 0.16961,-0.87344 0.53556,-1.55393 0.67614,-2.45591 -0.18876,1.87514 -3.34395,-0.30246 -2.96296,-0.14137 z"
       id="path2900"
       sodipodi:nodetypes="cccc" />
  </g>
</svg>
