<?xml version="1.0" encoding="UTF-8" standalone="no"?>
<!-- Created with Inkscape (http://www.inkscape.org/) -->

<svg
   xmlns:dc="http://purl.org/dc/elements/1.1/"
   xmlns:cc="http://creativecommons.org/ns#"
   xmlns:rdf="http://www.w3.org/1999/02/22-rdf-syntax-ns#"
   xmlns:svg="http://www.w3.org/2000/svg"
   xmlns="http://www.w3.org/2000/svg"
   xmlns:xlink="http://www.w3.org/1999/xlink"
   xmlns:sodipodi="http://sodipodi.sourceforge.net/DTD/sodipodi-0.dtd"
   xmlns:inkscape="http://www.inkscape.org/namespaces/inkscape"
   width="800"
   height="600"
   id="svg2"
   version="1.1"
   inkscape:version="0.47 r22583"
   sodipodi:docname="menu_background.svg"
   inkscape:export-filename="/home/aiden/Dropbox/Projects/Sprung/res/images/menu_background.png"
   inkscape:export-xdpi="90"
   inkscape:export-ydpi="90">
  <defs
     id="defs4">
    <inkscape:perspective
       sodipodi:type="inkscape:persp3d"
       inkscape:vp_x="0 : 526.18109 : 1"
       inkscape:vp_y="0 : 1000 : 0"
       inkscape:vp_z="744.09448 : 526.18109 : 1"
       inkscape:persp3d-origin="372.04724 : 350.78739 : 1"
       id="perspective10" />
    <radialGradient
       gradientTransform="matrix(1.5009462,-0.97826168,0.83876739,1.2869203,-544.93277,214.46733)"
       gradientUnits="userSpaceOnUse"
       r="49.285713"
       fy="445.3714"
       fx="343.0777"
       cy="445.3714"
       cx="343.0777"
       id="radialGradient3628"
       xlink:href="#linearGradient3622"
       inkscape:collect="always" />
    <inkscape:perspective
       id="perspective10-4"
       inkscape:persp3d-origin="372.04724 : 350.78739 : 1"
       inkscape:vp_z="744.09448 : 526.18109 : 1"
       inkscape:vp_y="0 : 1000 : 0"
       inkscape:vp_x="0 : 526.18109 : 1"
       sodipodi:type="inkscape:persp3d" />
    <linearGradient
       id="linearGradient3622">
      <stop
         id="stop3624"
         offset="0"
         style="stop-color:#d4ff56;stop-opacity:1;" />
      <stop
         id="stop3626"
         offset="1"
         style="stop-color:#d4e200;stop-opacity:0;" />
    </linearGradient>
    <radialGradient
       gradientTransform="matrix(1.5009462,-0.97826168,0.83876739,1.2869203,-544.93277,214.46733)"
       gradientUnits="userSpaceOnUse"
       r="49.285713"
       fy="445.3714"
       fx="343.0777"
       cy="445.3714"
       cx="343.0777"
       id="radialGradient3628-0"
       xlink:href="#linearGradient3622-7"
       inkscape:collect="always" />
    <inkscape:perspective
       id="perspective10-3"
       inkscape:persp3d-origin="372.04724 : 350.78739 : 1"
       inkscape:vp_z="744.09448 : 526.18109 : 1"
       inkscape:vp_y="0 : 1000 : 0"
       inkscape:vp_x="0 : 526.18109 : 1"
       sodipodi:type="inkscape:persp3d" />
    <linearGradient
       id="linearGradient3622-7">
      <stop
         id="stop3624-6"
         offset="0"
         style="stop-color:#d4ff56;stop-opacity:1;" />
      <stop
         id="stop3626-4"
         offset="1"
         style="stop-color:#d4e200;stop-opacity:0;" />
    </linearGradient>
    <radialGradient
       gradientUnits="userSpaceOnUse"
       r="11.964286"
       fy="25.071428"
       fx="2.6785715"
       cy="25.071428"
       cx="2.6785715"
       id="radialGradient3599"
       xlink:href="#linearGradient3593"
       inkscape:collect="always" />
    <radialGradient
       gradientTransform="matrix(3.2151897,0,0,2.6772151,1.286314,1.1536251)"
       gradientUnits="userSpaceOnUse"
       r="11.283596"
       fy="-0.68782181"
       fx="-0.58067894"
       cy="-0.68782181"
       cx="-0.58067894"
       id="radialGradient3600"
       xlink:href="#linearGradient3594"
       inkscape:collect="always" />
    <inkscape:perspective
       id="perspective10-47"
       inkscape:persp3d-origin="372.04724 : 350.78739 : 1"
       inkscape:vp_z="744.09448 : 526.18109 : 1"
       inkscape:vp_y="0 : 1000 : 0"
       inkscape:vp_x="0 : 526.18109 : 1"
       sodipodi:type="inkscape:persp3d" />
    <linearGradient
       id="linearGradient3594">
      <stop
         id="stop3596"
         offset="0"
         style="stop-color:#ffa100;stop-opacity:0.32539684;" />
      <stop
         id="stop3598"
         offset="1"
         style="stop-color:#ffa100;stop-opacity:0.84126985;" />
    </linearGradient>
    <linearGradient
       id="linearGradient3593">
      <stop
         id="stop3595"
         offset="0"
         style="stop-color:#fcff2a;stop-opacity:1;" />
      <stop
         style="stop-color:#fcff2a;stop-opacity:0.49803922;"
         offset="0.73214287"
         id="stop3609" />
      <stop
         id="stop3597"
         offset="1"
         style="stop-color:#fcff2a;stop-opacity:0;" />
    </linearGradient>
    <linearGradient
       gradientTransform="matrix(0.05735433,0,0,1,185.16255,0)"
       gradientUnits="userSpaceOnUse"
       y2="1053.0228"
       x2="103.83929"
       y1="1015.5229"
       x1="103.83929"
       id="linearGradient3602"
       xlink:href="#linearGradient3594-0"
       inkscape:collect="always" />
    <inkscape:perspective
       id="perspective10-9"
       inkscape:persp3d-origin="372.04724 : 350.78739 : 1"
       inkscape:vp_z="744.09448 : 526.18109 : 1"
       inkscape:vp_y="0 : 1000 : 0"
       inkscape:vp_x="0 : 526.18109 : 1"
       sodipodi:type="inkscape:persp3d" />
    <linearGradient
       id="linearGradient3594-0"
       inkscape:collect="always">
      <stop
         id="stop3596-2"
         offset="0"
         style="stop-color:#00aa44;stop-opacity:1;" />
      <stop
         id="stop3598-2"
         offset="1"
         style="stop-color:#00aa44;stop-opacity:0;" />
    </linearGradient>
  </defs>
  <sodipodi:namedview
     id="base"
     pagecolor="#ffffff"
     bordercolor="#666666"
     borderopacity="1.0"
     inkscape:pageopacity="0.0"
     inkscape:pageshadow="2"
     inkscape:zoom="0.98994949"
     inkscape:cx="195.24928"
     inkscape:cy="224.17426"
     inkscape:document-units="px"
     inkscape:current-layer="layer1"
     showgrid="false"
     showguides="true"
     inkscape:guide-bbox="true"
     inkscape:window-width="1920"
     inkscape:window-height="1029"
     inkscape:window-x="0"
     inkscape:window-y="24"
     inkscape:window-maximized="1" />
  <metadata
     id="metadata7">
    <rdf:RDF>
      <cc:Work
         rdf:about="">
        <dc:format>image/svg+xml</dc:format>
        <dc:type
           rdf:resource="http://purl.org/dc/dcmitype/StillImage" />
        <dc:title></dc:title>
      </cc:Work>
    </rdf:RDF>
  </metadata>
  <g
     inkscape:label="Layer 1"
     inkscape:groupmode="layer"
     id="layer1"
     transform="translate(0,-452.36218)">
    <rect
       style="fill:#333333;fill-opacity:1;stroke:none"
       id="rect2870"
       width="800"
       height="600"
       x="0"
       y="452.36218" />
    <text
       xml:space="preserve"
       style="font-size:72px;font-style:normal;font-variant:normal;font-weight:normal;font-stretch:normal;fill:#e6e6e6;fill-opacity:1;stroke:none;font-family:DejaVu Sans;-inkscape-font-specification:DejaVu Sans"
       x="398.60724"
       y="572.53973"
       id="text2872"><tspan
         sodipodi:role="line"
         x="398.60724"
         y="572.53973"
         id="tspan2876"
         style="font-style:normal;font-variant:normal;font-weight:normal;font-stretch:normal;text-align:center;text-anchor:middle;fill:#e6e6e6;font-family:Sniglet;-inkscape-font-specification:Sniglet">Sprung!</tspan></text>
    <g
       transform="matrix(3.3743561,0,0,3.3743561,-1030.5453,-839.73584)"
       id="layer1-9"
       inkscape:label="Layer 1">
      <path
         sodipodi:nodetypes="csssssssssssssss"
         id="path3594"
         d="m 326.85765,501.60209 c 0,0 -32.81808,5.28229 -33.02731,16.29292 -0.21248,11.1819 19.34381,19.441 33.02731,15.20672 l 31.59133,-9.77575 c 11.07549,-3.42723 -22.64462,-9.02142 -34.46327,-7.60336 -12.58784,1.51036 -42.196,10.94521 -31.59134,16.29292 0,0 20.71128,16.45151 34.46328,17.37911 11.9572,0.80654 33.02731,-10.86194 33.02731,-10.86194 9.47588,-3.11641 -19.92419,-6.52437 -30.15537,-5.43098 -12.5216,1.33817 -42.98607,8.22515 -33.02731,14.12053 0,0 19.09496,18.68168 33.02731,19.55151 11.95445,0.74633 31.59134,-13.03434 31.59134,-13.03434 10.80358,-4.45747 -23.92322,-8.65903 -35.89925,-6.51717 -11.57057,2.06935 -36.74078,11.92866 -27.28343,17.37911 0,0 17.52475,17.07771 30.15536,17.37912 10.34978,0.24698 25.84747,-13.03434 25.84747,-13.03434"
         style="fill:none;stroke:#cccccc;stroke-width:2.62268281;stroke-linecap:butt;stroke-linejoin:miter;stroke-miterlimit:4;stroke-opacity:1;stroke-dasharray:none" />
      <path
         d="m 377.14286,461.64789 c 0,27.21975 -22.06597,49.28571 -49.28571,49.28571 -27.21975,0 -49.28572,-22.06596 -49.28572,-49.28571 0,-27.21975 22.06597,-49.28572 49.28572,-49.28572 27.21974,0 49.28571,22.06597 49.28571,49.28572 z"
         sodipodi:ry="49.285713"
         sodipodi:rx="49.285713"
         sodipodi:cy="461.64789"
         sodipodi:cx="327.85715"
         id="path2816"
         style="fill:#d4aa00;fill-opacity:1;stroke:none"
         sodipodi:type="arc" />
      <path
         sodipodi:type="arc"
         style="fill:url(#radialGradient3628);fill-opacity:1;stroke:none"
         id="path3612"
         sodipodi:cx="327.85715"
         sodipodi:cy="461.64789"
         sodipodi:rx="49.285713"
         sodipodi:ry="49.285713"
         d="m 377.14286,461.64789 c 0,27.21975 -22.06597,49.28571 -49.28571,49.28571 -27.21975,0 -49.28572,-22.06596 -49.28572,-49.28571 0,-27.21975 22.06597,-49.28572 49.28572,-49.28572 27.21974,0 49.28571,22.06597 49.28571,49.28572 z" />
      <path
         sodipodi:type="arc"
         style="fill:#ffffff;fill-opacity:1;stroke:none"
         id="path3600"
         sodipodi:cx="95"
         sodipodi:cy="563.07648"
         sodipodi:rx="10.714286"
         sodipodi:ry="17.857143"
         d="m 105.71429,563.07648 c 0,9.86223 -4.79695,17.85714 -10.71429,17.85714 -5.917337,0 -10.714286,-7.99491 -10.714286,-17.85714 0,-9.86223 4.796949,-17.85715 10.714286,-17.85715 5.91734,0 10.71429,7.99492 10.71429,17.85715 z"
         transform="matrix(1.4743493,0,0,1.5891169,211.60939,-435.03402)" />
      <path
         transform="matrix(1.4743493,0,0,1.5891169,190.79505,-435.03402)"
         d="m 105.71429,563.07648 c 0,9.86223 -4.79695,17.85714 -10.71429,17.85714 -5.917337,0 -10.714286,-7.99491 -10.714286,-17.85714 0,-9.86223 4.796949,-17.85715 10.714286,-17.85715 5.91734,0 10.71429,7.99492 10.71429,17.85715 z"
         sodipodi:ry="17.857143"
         sodipodi:rx="10.714286"
         sodipodi:cy="563.07648"
         sodipodi:cx="95"
         id="path3602"
         style="fill:#ffffff;fill-opacity:1;stroke:none"
         sodipodi:type="arc" />
      <path
         transform="matrix(0.96898367,0,0,1.0930626,54.433229,-55.78042)"
         d="m 302.85714,471.64789 c 0,4.33938 -3.51776,7.85714 -7.85714,7.85714 -4.33938,0 -7.85714,-3.51776 -7.85714,-7.85714 0,-4.33938 3.51776,-7.85714 7.85714,-7.85714 4.33938,0 7.85714,3.51776 7.85714,7.85714 z"
         sodipodi:ry="7.8571429"
         sodipodi:rx="7.8571429"
         sodipodi:cy="471.64789"
         sodipodi:cx="295"
         id="path3606"
         style="fill:#000000;fill-opacity:1;stroke:none"
         sodipodi:type="arc" />
      <path
         sodipodi:type="arc"
         style="fill:#000000;fill-opacity:1;stroke:none"
         id="path3608"
         sodipodi:cx="295"
         sodipodi:cy="471.64789"
         sodipodi:rx="7.8571429"
         sodipodi:ry="7.8571429"
         d="m 302.85714,471.64789 c 0,4.33938 -3.51776,7.85714 -7.85714,7.85714 -4.33938,0 -7.85714,-3.51776 -7.85714,-7.85714 0,-4.33938 3.51776,-7.85714 7.85714,-7.85714 4.33938,0 7.85714,3.51776 7.85714,7.85714 z"
         transform="matrix(0.96898367,0,0,1.0930626,66.061033,-55.78042)" />
      <path
         sodipodi:nodetypes="ccc"
         id="path3610"
         d="m 330,413.07647 c 11.18621,-27.61922 -23.30698,-19.25367 -17.14286,-10 17.2642,11.29701 16.4294,-8.78157 22.85714,-22.14286"
         style="fill:none;stroke:#000000;stroke-width:2;stroke-linecap:butt;stroke-linejoin:miter;stroke-miterlimit:4;stroke-opacity:1;stroke-dasharray:none" />
    </g>
    <g
       transform="matrix(19.182716,0,0,19.182716,527.42182,-19094.205)"
       id="layer1-0"
       inkscape:label="Layer 1">
      <path
         transform="matrix(1.0634908,0,0,1.0634908,12.617547,1041.0937)"
         d="M 8.4938827,8.3867398 0.93955827,5.8249948 -5.4534084,10.595774 -5.3514587,2.6195615 -11.864274,-1.9862593 -4.2469417,-4.3540846 -1.8791165,-11.971417 2.7267044,-5.4586016 10.702917,-5.5605513 5.9321377,0.83241543 8.4938827,8.3867398 z"
         inkscape:randomized="0"
         inkscape:rounded="0"
         inkscape:flatsided="false"
         sodipodi:arg2="1.4137167"
         sodipodi:arg1="0.78539816"
         sodipodi:r2="6.0060825"
         sodipodi:r1="12.012164"
         sodipodi:cy="-0.10714291"
         sodipodi:cx="0"
         sodipodi:sides="5"
         id="path2818"
         style="fill:#ffd42a;fill-opacity:1;stroke:none"
         sodipodi:type="star" />
      <path
         sodipodi:type="star"
         style="fill:url(#radialGradient3600);fill-opacity:1;stroke:none"
         id="path2820"
         sodipodi:sides="5"
         sodipodi:cx="0"
         sodipodi:cy="-0.10714291"
         sodipodi:r1="12.012164"
         sodipodi:r2="6.0060825"
         sodipodi:arg1="0.78539816"
         sodipodi:arg2="1.4137167"
         inkscape:flatsided="false"
         inkscape:rounded="0"
         inkscape:randomized="0"
         d="M 8.4938827,8.3867398 0.93955827,5.8249948 -5.4534084,10.595774 -5.3514587,2.6195615 -11.864274,-1.9862593 -4.2469417,-4.3540846 -1.8791165,-11.971417 2.7267044,-5.4586016 10.702917,-5.5605513 5.9321377,0.83241543 8.4938827,8.3867398 z"
         transform="matrix(1.0001878,0,0,1.0001878,12.580788,1041.0502)" />
      <path
         transform="matrix(1.0029851,0,0,1.0029851,9.3134327,1015.2159)"
         d="m 14.642857,25.071428 c 0,6.607693 -5.3565929,11.964286 -11.9642855,11.964286 -6.6076927,0 -11.9642859,-5.356593 -11.9642859,-11.964286 0,-6.607692 5.3565932,-11.964286 11.9642859,-11.964286 6.6076926,0 11.9642855,5.356594 11.9642855,11.964286 z"
         sodipodi:ry="11.964286"
         sodipodi:rx="11.964286"
         sodipodi:cy="25.071428"
         sodipodi:cx="2.6785715"
         id="path2819"
         style="opacity:0.85062244;fill:url(#radialGradient3599);fill-opacity:1;stroke:none"
         sodipodi:type="arc" />
    </g>
  </g>
</svg>
