<?xml version="1.0" encoding="UTF-8" standalone="no"?>
<!-- Created with Inkscape (http://www.inkscape.org/) -->

<svg
   xmlns:dc="http://purl.org/dc/elements/1.1/"
   xmlns:cc="http://creativecommons.org/ns#"
   xmlns:rdf="http://www.w3.org/1999/02/22-rdf-syntax-ns#"
   xmlns:svg="http://www.w3.org/2000/svg"
   xmlns="http://www.w3.org/2000/svg"
   xmlns:xlink="http://www.w3.org/1999/xlink"
   xmlns:sodipodi="http://sodipodi.sourceforge.net/DTD/sodipodi-0.dtd"
   xmlns:inkscape="http://www.inkscape.org/namespaces/inkscape"
   width="108"
   height="203.36"
   id="svg2"
   version="1.1"
   inkscape:version="0.47 r22583"
   sodipodi:docname="player.svg"
   inkscape:export-filename="/home/aiden/Desktop/Outbox/SwinGame/Resources/images/player_right.png"
   inkscape:export-xdpi="18.145018"
   inkscape:export-ydpi="18.145018">
  <defs
     id="defs4">
    <linearGradient
       id="linearGradient3625">
      <stop
         style="stop-color:#5300d0;stop-opacity:0;"
         offset="0"
         id="stop3627" />
      <stop
         id="stop3633"
         offset="0.5"
         style="stop-color:#5100cc;stop-opacity:1;" />
      <stop
         style="stop-color:#5300d0;stop-opacity:0;"
         offset="1"
         id="stop3629" />
    </linearGradient>
    <linearGradient
       id="linearGradient3622">
      <stop
         style="stop-color:#d4ff56;stop-opacity:1;"
         offset="0"
         id="stop3624" />
      <stop
         style="stop-color:#d4e200;stop-opacity:0;"
         offset="1"
         id="stop3626" />
    </linearGradient>
    <inkscape:perspective
       sodipodi:type="inkscape:persp3d"
       inkscape:vp_x="0 : 526.18109 : 1"
       inkscape:vp_y="0 : 1000 : 0"
       inkscape:vp_z="744.09448 : 526.18109 : 1"
       inkscape:persp3d-origin="372.04724 : 350.78739 : 1"
       id="perspective10" />
    <radialGradient
       inkscape:collect="always"
       xlink:href="#linearGradient3622"
       id="radialGradient3628"
       cx="343.0777"
       cy="445.3714"
       fx="343.0777"
       fy="445.3714"
       r="49.285713"
       gradientUnits="userSpaceOnUse"
       gradientTransform="matrix(1.5009462,-0.97826168,0.83876739,1.2869203,-544.93277,214.46733)" />
    <linearGradient
       inkscape:collect="always"
       xlink:href="#linearGradient3625"
       id="linearGradient3631"
       x1="240.17064"
       y1="474.43143"
       x2="239.47958"
       y2="530.3078"
       gradientUnits="userSpaceOnUse"
       gradientTransform="matrix(0.98201856,-0.18878442,0.18878442,0.98201856,7.154144,0)" />
    <radialGradient
       inkscape:collect="always"
       xlink:href="#linearGradient3625"
       id="radialGradient3645"
       cx="313.96042"
       cy="404.09018"
       fx="313.96042"
       fy="404.09018"
       r="14.309917"
       gradientTransform="matrix(2.3235828,1.2047763e-6,-1.1998753e-6,2.3141311,-405.37706,-531.02787)"
       gradientUnits="userSpaceOnUse" />
  </defs>
  <sodipodi:namedview
     id="base"
     pagecolor="#ffffff"
     bordercolor="#666666"
     borderopacity="1.0"
     inkscape:pageopacity="0.0"
     inkscape:pageshadow="2"
     inkscape:zoom="0.98994949"
     inkscape:cx="11.083837"
     inkscape:cy="201.43319"
     inkscape:document-units="px"
     inkscape:current-layer="layer1"
     showgrid="false"
     inkscape:window-width="1920"
     inkscape:window-height="1029"
     inkscape:window-x="0"
     inkscape:window-y="24"
     inkscape:window-maximized="1" />
  <metadata
     id="metadata7">
    <rdf:RDF>
      <cc:Work
         rdf:about="">
        <dc:format>image/svg+xml</dc:format>
        <dc:type
           rdf:resource="http://purl.org/dc/dcmitype/StillImage" />
        <dc:title />
      </cc:Work>
    </rdf:RDF>
  </metadata>
  <g
     inkscape:label="Layer 1"
     inkscape:groupmode="layer"
     id="layer1"
     transform="translate(-278.57143,-379.93523)">
    <path
       style="fill:none;stroke:#cccccc;stroke-width:2.62268281;stroke-linecap:butt;stroke-linejoin:miter;stroke-miterlimit:4;stroke-opacity:1;stroke-dasharray:none"
       d="m 334.01179,501.60209 c 0,0 -32.81808,5.28229 -33.02731,16.29292 -0.21248,11.1819 19.34381,19.441 33.02731,15.20672 l 31.59133,-9.77575 c 11.07549,-3.42723 -22.64462,-9.02142 -34.46327,-7.60336 -12.58784,1.51036 -42.196,10.94521 -31.59134,16.29292 0,0 20.71128,16.45151 34.46328,17.37911 11.9572,0.80654 33.02731,-10.86194 33.02731,-10.86194 9.47588,-3.11641 -19.92419,-6.52437 -30.15537,-5.43098 -12.5216,1.33817 -42.98607,8.22515 -33.02731,14.12053 0,0 19.09496,18.68168 33.02731,19.55151 11.95445,0.74633 31.59134,-13.03434 31.59134,-13.03434 10.80358,-4.45747 -23.92322,-8.65903 -35.89925,-6.51717 -11.57057,2.06935 -36.74078,11.92866 -27.28343,17.37911 0,0 17.52475,17.07771 30.15536,17.37912 10.34978,0.24698 25.84747,-13.03434 25.84747,-13.03434"
       id="path3594"
       sodipodi:nodetypes="csssssssssssssss" />
    <path
       sodipodi:type="arc"
       style="fill:#d4aa00;fill-opacity:1;stroke:none"
       id="path2816"
       sodipodi:cx="327.85715"
       sodipodi:cy="461.64789"
       sodipodi:rx="49.285713"
       sodipodi:ry="49.285713"
       d="m 377.14286,461.64789 a 49.285713,49.285713 0 1 1 -98.57143,0 49.285713,49.285713 0 1 1 98.57143,0 z"
       transform="translate(7.154144,0)" />
    <path
       d="m 377.14286,461.64789 a 49.285713,49.285713 0 1 1 -98.57143,0 49.285713,49.285713 0 1 1 98.57143,0 z"
       sodipodi:ry="49.285713"
       sodipodi:rx="49.285713"
       sodipodi:cy="461.64789"
       sodipodi:cx="327.85715"
       id="path3612"
       style="fill:url(#radialGradient3628);fill-opacity:1;stroke:none"
       sodipodi:type="arc"
       transform="translate(7.154144,0)" />
    <path
       transform="matrix(1.4743493,0,0,1.5891169,218.76353,-435.03402)"
       d="m 105.71429,563.07648 a 10.714286,17.857143 0 1 1 -21.428576,0 10.714286,17.857143 0 1 1 21.428576,0 z"
       sodipodi:ry="17.857143"
       sodipodi:rx="10.714286"
       sodipodi:cy="563.07648"
       sodipodi:cx="95"
       id="path3600"
       style="fill:#ffffff;fill-opacity:1;stroke:none"
       sodipodi:type="arc" />
    <path
       sodipodi:type="arc"
       style="fill:#ffffff;fill-opacity:1;stroke:none"
       id="path3602"
       sodipodi:cx="95"
       sodipodi:cy="563.07648"
       sodipodi:rx="10.714286"
       sodipodi:ry="17.857143"
       d="m 105.71429,563.07648 a 10.714286,17.857143 0 1 1 -21.428576,0 10.714286,17.857143 0 1 1 21.428576,0 z"
       transform="matrix(1.4743493,0,0,1.5891169,197.94919,-435.03402)" />
    <path
       sodipodi:type="arc"
       style="fill:#000000;fill-opacity:1;stroke:none"
       id="path3606"
       sodipodi:cx="295"
       sodipodi:cy="471.64789"
       sodipodi:rx="7.8571429"
       sodipodi:ry="7.8571429"
       d="m 302.85714,471.64789 a 7.8571429,7.8571429 0 1 1 -15.71428,0 7.8571429,7.8571429 0 1 1 15.71428,0 z"
       transform="matrix(0.96898367,0,0,1.0930626,61.587373,-55.78042)" />
    <path
       transform="matrix(0.96898367,0,0,1.0930626,73.215177,-55.78042)"
       d="m 302.85714,471.64789 a 7.8571429,7.8571429 0 1 1 -15.71428,0 7.8571429,7.8571429 0 1 1 15.71428,0 z"
       sodipodi:ry="7.8571429"
       sodipodi:rx="7.8571429"
       sodipodi:cy="471.64789"
       sodipodi:cx="295"
       id="path3608"
       style="fill:#000000;fill-opacity:1;stroke:none"
       sodipodi:type="arc" />
    <path
       style="fill:#2a7fff;stroke:none"
       d="m 284.46288,465.10738 98.48988,-18.94036 c -13.26946,-49.51964 -96.57058,-61.68965 -98.48988,18.94036 z"
       id="path2824"
       sodipodi:nodetypes="ccc" />
    <path
       style="fill:none;stroke:#0668ff;stroke-width:1px;stroke-linecap:butt;stroke-linejoin:miter;stroke-opacity:1"
       d="m 328.63675,410.55914 c 10.94362,7.74436 21.33104,15.76681 28.28427,25.50635"
       id="path2841"
       sodipodi:nodetypes="cc" />
    <path
       style="fill:none;stroke:#0668ff;stroke-width:1px;stroke-linecap:butt;stroke-linejoin:miter;stroke-opacity:1"
       d="m 316.76746,413.33706 c -5.42052,9.84008 -11.60377,16.88352 -15.15229,33.58757"
       id="path2839"
       sodipodi:nodetypes="cc" />
    <path
       style="fill:#7f2aff;fill-opacity:1;stroke:none"
       d="m 281.19081,447.4345 98.86658,-19.00623 c 1.16642,-0.22423 2.2844,0.52611 2.50669,1.68238 -0.27862,5.79812 1.39701,10.94484 3.0922,16.08503 0.22228,1.15627 -0.5378,2.26765 -1.70422,2.49189 l -98.86658,19.00623 c -1.16643,0.22423 -2.28441,-0.52611 -2.5067,-1.68238 -0.36417,-5.36168 -1.05904,-10.72335 -3.0922,-16.08503 -0.22228,-1.15627 0.5378,-2.26766 1.70423,-2.49189 z"
       id="rect2828"
       sodipodi:nodetypes="ccccccccc" />
    <path
       style="fill:#7f2aff;stroke:none"
       d="m 314.60921,393.10833 c -2.59735,1.70088 -6.42616,2.69156 -8.45594,5.04971 -0.95635,1.11106 -1.07905,2.81799 -1.39438,4.06824 -0.65401,2.59313 0.1801,3.5615 0.89718,5.93534 2.56811,8.50145 13.5055,9.58331 20.12747,5.62881 0.85083,-0.5081 3.14358,-1.35279 3.68593,-2.20115 0.85289,-1.33414 2.07788,-2.41161 2.99638,-3.84837 1.02701,-1.6065 0.67053,-4.75656 0.3164,-6.36592 -1.28335,-5.83228 -5.08953,-9.58551 -11.32828,-9.11864 -2.3498,0.17584 -3.37763,-0.64092 -6.84476,0.85198 z"
       id="path2836" />
    <path
       sodipodi:nodetypes="ccccccccc"
       id="path3615"
       d="m 281.19081,447.4345 98.86658,-19.00623 c 1.16642,-0.22423 2.2844,0.52611 2.50669,1.68238 -0.27862,5.79812 1.39701,10.94484 3.0922,16.08503 0.22228,1.15627 -0.5378,2.26765 -1.70422,2.49189 l -98.86658,19.00623 c -1.16643,0.22423 -2.28441,-0.52611 -2.5067,-1.68238 -0.36417,-5.36168 -1.05904,-10.72335 -3.0922,-16.08503 -0.22228,-1.15627 0.5378,-2.26766 1.70423,-2.49189 z"
       style="fill:url(#linearGradient3631);fill-opacity:1;stroke:none" />
    <path
       id="path3635"
       d="m 314.60921,393.10833 c -2.59735,1.70088 -6.42616,2.69156 -8.45594,5.04971 -0.95635,1.11106 -1.07905,2.81799 -1.39438,4.06824 -0.65401,2.59313 0.1801,3.5615 0.89718,5.93534 2.56811,8.50145 13.5055,9.58331 20.12747,5.62881 0.85083,-0.5081 3.14358,-1.35279 3.68593,-2.20115 0.85289,-1.33414 2.07788,-2.41161 2.99638,-3.84837 1.02701,-1.6065 0.67053,-4.75656 0.3164,-6.36592 -1.28335,-5.83228 -5.08953,-9.58551 -11.32828,-9.11864 -2.3498,0.17584 -3.37763,-0.64092 -6.84476,0.85198 z"
       style="fill:url(#radialGradient3645);fill-opacity:1;stroke:none" />
  </g>
</svg>
