<?xml version="1.0" encoding="UTF-8" standalone="no"?>
<!-- Created with Inkscape (http://www.inkscape.org/) -->

<svg
   xmlns:dc="http://purl.org/dc/elements/1.1/"
   xmlns:cc="http://creativecommons.org/ns#"
   xmlns:rdf="http://www.w3.org/1999/02/22-rdf-syntax-ns#"
   xmlns:svg="http://www.w3.org/2000/svg"
   xmlns="http://www.w3.org/2000/svg"
   xmlns:xlink="http://www.w3.org/1999/xlink"
   xmlns:sodipodi="http://sodipodi.sourceforge.net/DTD/sodipodi-0.dtd"
   xmlns:inkscape="http://www.inkscape.org/namespaces/inkscape"
   width="128"
   height="128"
   id="svg2"
   version="1.1"
   inkscape:version="0.47 r22583"
   sodipodi:docname="sprung.svg"
   inkscape:export-filename="/home/aiden/Desktop/sprung.png"
   inkscape:export-xdpi="18.145018"
   inkscape:export-ydpi="18.145018">
  <defs
     id="defs4">
    <linearGradient
       id="linearGradient3622">
      <stop
         style="stop-color:#d4ff56;stop-opacity:1;"
         offset="0"
         id="stop3624" />
      <stop
         style="stop-color:#d4e200;stop-opacity:0;"
         offset="1"
         id="stop3626" />
    </linearGradient>
    <inkscape:perspective
       sodipodi:type="inkscape:persp3d"
       inkscape:vp_x="0 : 526.18109 : 1"
       inkscape:vp_y="0 : 1000 : 0"
       inkscape:vp_z="744.09448 : 526.18109 : 1"
       inkscape:persp3d-origin="372.04724 : 350.78739 : 1"
       id="perspective10" />
    <radialGradient
       inkscape:collect="always"
       xlink:href="#linearGradient3622"
       id="radialGradient3628"
       cx="343.0777"
       cy="445.3714"
       fx="343.0777"
       fy="445.3714"
       r="49.285713"
       gradientUnits="userSpaceOnUse"
       gradientTransform="matrix(1.5009462,-0.97826168,0.83876739,1.2869203,-544.93277,214.46733)" />
    <radialGradient
       inkscape:collect="always"
       xlink:href="#linearGradient3622"
       id="radialGradient2834"
       gradientUnits="userSpaceOnUse"
       gradientTransform="matrix(1.5009462,-0.97826168,0.83876739,1.2869203,-544.93277,214.46733)"
       cx="343.0777"
       cy="445.3714"
       fx="343.0777"
       fy="445.3714"
       r="49.285713" />
  </defs>
  <sodipodi:namedview
     id="base"
     pagecolor="#ffffff"
     bordercolor="#666666"
     borderopacity="1.0"
     inkscape:pageopacity="0.0"
     inkscape:pageshadow="2"
     inkscape:zoom="0.98994949"
     inkscape:cx="17.040833"
     inkscape:cy="122.49201"
     inkscape:document-units="px"
     inkscape:current-layer="layer1"
     showgrid="false"
     inkscape:window-width="1920"
     inkscape:window-height="1029"
     inkscape:window-x="0"
     inkscape:window-y="24"
     inkscape:window-maximized="1" />
  <metadata
     id="metadata7">
    <rdf:RDF>
      <cc:Work
         rdf:about="">
        <dc:format>image/svg+xml</dc:format>
        <dc:type
           rdf:resource="http://purl.org/dc/dcmitype/StillImage" />
        <dc:title />
      </cc:Work>
    </rdf:RDF>
  </metadata>
  <g
     inkscape:label="Layer 1"
     inkscape:groupmode="layer"
     id="layer1"
     transform="translate(-278.57143,-423.98052)">
    <g
       id="g2824"
       transform="matrix(0.80546247,0,0,0.80546247,78.494802,107.38094)">
      <path
         sodipodi:nodetypes="csssssssssssssss"
         id="path3594"
         d="m 326.85839,501.32496 c 0,0 -33.06646,3.26086 -33.27727,10.05795 -0.21409,6.90282 19.49021,12.00133 33.27727,9.38742 l 31.83043,-6.03477 c 11.15931,-2.1157 -22.816,-5.56911 -34.7241,-4.69371 -12.68311,0.93238 -42.51536,6.7567 -31.83044,10.05796 0,0 20.86803,10.15585 34.72411,10.72848 12.0477,0.49789 33.27728,-6.7053 33.27728,-6.7053 9.5476,-1.92383 -20.07499,-4.02763 -30.3836,-3.35266 -12.61637,0.82608 -43.31141,5.07756 -33.27728,8.7169 0,0 19.23948,11.53258 33.27728,12.06954 12.04493,0.46073 31.83044,-8.04636 31.83044,-8.04636 10.88534,-2.75169 -24.10429,-5.3454 -36.17096,-4.02318 -11.65814,1.27745 -37.01885,7.3638 -27.48992,10.72848 0,0 17.65739,10.54242 30.38359,10.72849 10.42811,0.15246 26.0431,-8.04637 26.0431,-8.04637"
         style="fill:none;stroke:#cccccc;stroke-width:2.0684185;stroke-linecap:butt;stroke-linejoin:miter;stroke-miterlimit:4;stroke-opacity:1;stroke-dasharray:none" />
      <path
         d="m 377.14286,461.64789 c 0,27.21975 -22.06597,49.28571 -49.28571,49.28571 -27.21975,0 -49.28572,-22.06596 -49.28572,-49.28571 0,-27.21975 22.06597,-49.28572 49.28572,-49.28572 27.21974,0 49.28571,22.06597 49.28571,49.28572 z"
         sodipodi:ry="49.285713"
         sodipodi:rx="49.285713"
         sodipodi:cy="461.64789"
         sodipodi:cx="327.85715"
         id="path2816"
         style="fill:#d4aa00;fill-opacity:1;stroke:none"
         sodipodi:type="arc" />
      <path
         sodipodi:type="arc"
         style="fill:url(#radialGradient2834);fill-opacity:1;stroke:none"
         id="path3612"
         sodipodi:cx="327.85715"
         sodipodi:cy="461.64789"
         sodipodi:rx="49.285713"
         sodipodi:ry="49.285713"
         d="m 377.14286,461.64789 c 0,27.21975 -22.06597,49.28571 -49.28571,49.28571 -27.21975,0 -49.28572,-22.06596 -49.28572,-49.28571 0,-27.21975 22.06597,-49.28572 49.28572,-49.28572 27.21974,0 49.28571,22.06597 49.28571,49.28572 z" />
      <path
         sodipodi:type="arc"
         style="fill:#ffffff;fill-opacity:1;stroke:none"
         id="path3600"
         sodipodi:cx="95"
         sodipodi:cy="563.07648"
         sodipodi:rx="10.714286"
         sodipodi:ry="17.857143"
         d="m 105.71429,563.07648 c 0,9.86223 -4.79695,17.85714 -10.71429,17.85714 -5.917337,0 -10.714286,-7.99491 -10.714286,-17.85714 0,-9.86223 4.796949,-17.85715 10.714286,-17.85715 5.91734,0 10.71429,7.99492 10.71429,17.85715 z"
         transform="matrix(1.4743493,0,0,1.5891169,211.60939,-435.03402)" />
      <path
         transform="matrix(1.4743493,0,0,1.5891169,190.79505,-435.03402)"
         d="m 105.71429,563.07648 c 0,9.86223 -4.79695,17.85714 -10.71429,17.85714 -5.917337,0 -10.714286,-7.99491 -10.714286,-17.85714 0,-9.86223 4.796949,-17.85715 10.714286,-17.85715 5.91734,0 10.71429,7.99492 10.71429,17.85715 z"
         sodipodi:ry="17.857143"
         sodipodi:rx="10.714286"
         sodipodi:cy="563.07648"
         sodipodi:cx="95"
         id="path3602"
         style="fill:#ffffff;fill-opacity:1;stroke:none"
         sodipodi:type="arc" />
      <path
         transform="matrix(0.96898367,0,0,1.0930626,54.433229,-55.78042)"
         d="m 302.85714,471.64789 c 0,4.33938 -3.51776,7.85714 -7.85714,7.85714 -4.33938,0 -7.85714,-3.51776 -7.85714,-7.85714 0,-4.33938 3.51776,-7.85714 7.85714,-7.85714 4.33938,0 7.85714,3.51776 7.85714,7.85714 z"
         sodipodi:ry="7.8571429"
         sodipodi:rx="7.8571429"
         sodipodi:cy="471.64789"
         sodipodi:cx="295"
         id="path3606"
         style="fill:#000000;fill-opacity:1;stroke:none"
         sodipodi:type="arc" />
      <path
         sodipodi:type="arc"
         style="fill:#000000;fill-opacity:1;stroke:none"
         id="path3608"
         sodipodi:cx="295"
         sodipodi:cy="471.64789"
         sodipodi:rx="7.8571429"
         sodipodi:ry="7.8571429"
         d="m 302.85714,471.64789 c 0,4.33938 -3.51776,7.85714 -7.85714,7.85714 -4.33938,0 -7.85714,-3.51776 -7.85714,-7.85714 0,-4.33938 3.51776,-7.85714 7.85714,-7.85714 4.33938,0 7.85714,3.51776 7.85714,7.85714 z"
         transform="matrix(0.96898367,0,0,1.0930626,66.061033,-55.78042)" />
      <path
         sodipodi:nodetypes="ccc"
         id="path3610"
         d="m 330.111,413.29169 c 11.39023,-16.70524 -23.73206,-11.64541 -17.45552,-6.04841 17.57908,6.8329 16.72905,-5.31145 23.27402,-13.39291"
         style="fill:none;stroke:#000000;stroke-width:1.56955099;stroke-linecap:butt;stroke-linejoin:miter;stroke-miterlimit:4;stroke-opacity:1;stroke-dasharray:none" />
    </g>
  </g>
</svg>
